<mxfile host="app.diagrams.net" agent="Mozilla/5.0 (Windows NT 10.0; Win64; x64; rv:132.0) Gecko/20100101 Firefox/132.0" version="24.8.4">
  <diagram name="Page-1" id="DtBfOL45YaT3miM4_KmN">
    <mxGraphModel dx="1600" dy="922" grid="1" gridSize="10" guides="1" tooltips="1" connect="1" arrows="1" fold="1" page="1" pageScale="1" pageWidth="850" pageHeight="1100" math="0" shadow="0">
      <root>
        <mxCell id="0" />
        <mxCell id="1" parent="0" />
        <mxCell id="lG4Si6NppUaspvrfnCq9-9" value="" style="group" parent="1" vertex="1" connectable="0">
          <mxGeometry x="170" y="160" width="210" height="263" as="geometry" />
        </mxCell>
        <mxCell id="lG4Si6NppUaspvrfnCq9-4" value="" style="shape=image;verticalLabelPosition=bottom;labelBackgroundColor=default;verticalAlign=top;aspect=fixed;imageAspect=0;image=data:image/png,iVBORw0KGgoAAAANSUhEUgAAAMoAAADwCAYAAABBhPtjAAAdF0lEQVR4Xu2dfVxUZdrHfxQgAeVoCSaYGK2o6yvqJpQIuiYW9AiYUlqYukpIurIWQmbpR1HYlj4qmaKRJCi+ICpsipagIuYTYhqh4zbrO48MGWPhRBPJc58ZBkYEOUycmTlnrvkrmPvc1319r/t7vxw/n7CpZx/QhwgQgfsSsCFRaIYQgbYJkChtM6IWRAAkCk0CIsCDAInCAxI1IQIkCs0BIsCDAInCAxI1IQIkCs0BIsCDAInCAxI1IQIkCs0BIsCDAInCAxI1IQIkCs0BIsCDAInCAxI1IQIkCs0BIsCDAInCAxI1IQIkCs0BIsCDAInCAxI1IQIkCs0BIsCDAInCAxI1IQIkCs0BIsCDgKCiaFTXUYVucJPZ33co6qrLuO3UC90ceYyYmhABMxD4A6Jk46XOaxEgL0RU95ZHfibWE6HYDUXiYEAjR9rsqViy8xtU2Xph7JJN2PUPH3BuZATZICu8HnnTzECAQnY8gfIE+AashqJ5z4HrUJkehuwIV0QdMPwyEOsq0zH+QCRGLHwEn5QlwZf7WvEB/APPI+Z0DMqeC8DqezvUPhfW8Rnc0+MfEEUD1fVbsHfrpp3sLX0MRVEsG4TBx6NxPnc23OtO4M2B43Bx6VUmRxcSxQSFNleIlhbB1hdGJdLG98Hm4As4Gm3H5kVvJD9zCqVxnk3DzwiCTVY46k28qhohSjkSfPV261aCJqM1kKdNReiCffje0QfP/6kcZ30OaXeUvKnOiPc6g7NLdElXn9qFLzEWk4YZiqJByeJn8OqVWBR+NgmuyEaE6z68qI+RHQHXfS9qVyX6iINA+0ThdpGV8H66DO9uc8bcSCfsO5eM4YYnd/GIoi9QBoJsshBen4fGE5NiGQYNPo7o87mY7aJEanBfJA45rjt6nfkAT499D9V/icb7K+IwaagM+vx1MH/F++eHIfjQK8g9FtcAp1kMM0ESx5S0zFG2JkpS942YN1I3ZtnQMO2CqfuwxTKmH0auuYUpeyqQGdTsfmumOWDEjnIfUVgSttmvoi5nirbRXXcULYNrKEpZiXfWb0ZJpwU4cmq5VggO5nuXB+Da9aHYc+MzTGhk88dEUanv4Kdf7sCtiy0efMAyJ5LUR9V+UbhNxRte8bcw7+tzSL5rO2G0pCKK8/5I1GQGNROlH7vPVAHd3KB7AabG/tc8sOCJQpxf3l8rSnRVBAJu7YH67QvIn+HSMH+ME+XH23eQXvQTFMrftP042NnghcFOCOj3kNTnpcXl1+6jlzIFfj13YOLHPZGQMgAnS+NgcEORiCjF0egx6TdsvbQB/vYaHJrhjshu3B3lCawP6I6twQp8EePOjly6797s0SSK9q3Xc0yM/svx5wNnkahdSfIw1TkJPlePIprtzMpkH7gennvfixz3/4f91/5qXPqhDu5sJ+ndzQ6nL9ei5td6vDzyYTzzJweLm0xSHlD7RKnG9pDeiO9zhM2Zx5Hi1xM7Jl9lF3v9wimqHUV/ma+FSlkLBxcZHKC/1FejcIEfXkitgLPzI+hsX4XfX2m4oyhzMP3Z6ci56cDa1+KBvouQW6C7ixjC1BTOgcfE60i6wO4+LtzlfhhGf6jrr99TnVDUZTHq7vPG48rNOiR9Xo0/udph/nMy7Rzkdpj3dt9EJ7azuHe1vWdeThjkBK/udlKer2bLrTVRZh5zgaxxzfLE/IJiLFRyta9BqjIT2qvJmVh4jv4OS7VzQX/IEM1bLx7M1SqobGUNx6xm7e/3XWtdt+OZ0su/Iu3oTxg/0BHBQ5wae3wv5yZu1txpMQJ3NFsx6VF0srXhkRw1sUYCf+Ayb5m4rv5Yh8R/V2sv8AsndIHdg9Aew/51oForwu936vHb78BDTI5ffquHLbvkvzFWRjuKZZbTYkYlOVG4O0oyu6NcZHI85vwgZE4P4MrN36Cpg/aO4tr5QeR/q8YMv0eQcfwn+PV1JEksZjpa7kAkJ4r+TrKZvfX6r8FbrxeHOsHPi956We5UtOyRSVIUPXLu31F+rr2DHjL6dxTLnoaWPzpJi2L5+GmEYiFAooilUjROsxIgUcyKn4KLhQCJIpZK0TjNSoBEMSt+Ci4WAiSKWCpF4zQrARLFrPgpuFgIkChiqRSN06wESBSz4qfgYiFAooilUjROsxIgUcyKn4KLhQCJIpZK0TjNSoBEMSt+Ci4WAiSKWCpF4zQrARLFrPgpuFgI8BJFLpeLJR8aJxEQhAAvUQSJTJ0SARERIFFEVCwaqvkIkCjmY0+RRUSARBFRsWio5iNAopiPPUUWEQESRUTFoqGajwCJYj72FFlEBEgUERWLhmo+AiSK+dhTZBERIFFEVCwaqvkIkCjmY0+RRUSARBFRsWio5iNAopiPPUUWEQESRUTFoqGajwCJYj72FFlEBEgUERWLhmo+AiSK+dhTZBERIFFEVCwaqvkIkCjmY0+RRUSARBFRsWio5iNAopiPvXQjlyfAN2A1FM0zDFyHyvQwZEe4IuqA4ZeBWFeZjvEHIjFi4SP4pCwJvtzXig/gH3geMadjUPZcAFbf26H2uTATkCRRTADZmkNkBNkgK7weedOaKLT0O923SqSN74PNwRdwNNoOGUG9kfzMKZTGeRo+DJuscNQbdmgCwEaIko0I3yKMGHUaq1K+xs8ez+Oj3J2Y9iQ3Wg1K1kxExIpTuFFXh+7Bm1CwOQQuYM8MSMMPdoUovOGP571L8Xnhw3hl+0lsDOrCHpMjbWoo3jp4CXUPj8A/dn6OJT6OJkifQghNoH2icLvISng/XYZ3tzljbqQT9p1LxnB7g1FmBIlFlAwE2byH3sXfYq2PLc69Oxwj/puAmswg4PskjJ74f1ha+iH87ZVI8euJA7N/ZqvJDvbMFoT+mgsEd8L2Kb8iF8FwzJ2BupwQFM7xwEz7bHy71ge2JbEYFFiJ1T9sxnihq0j9C06gNVGSum/EvJG68LKhYZg0jC2Y2g9bbGP6YeSaW5iypwKZQYaWsK/FJUoWwuvzoN1Nmw1cc60Iu3fmYn/R97helo+LE49DkfgtE0X3DPsP3VYM/crgjjkuk3E5KgGT3LkOr2FX/BYMPqRA4mDB60gBBCbQflG4TcUbXvG3MO/rc0i+azuRiijabfMgQnak4DVPZ5xbORpzO+9tQxQ7hNguwoOr3kGgTF81GYaGTULjIiNwMal74Qi0++ilTIFfzx2Y+HFPJKQMwMnSOBjcUCSyo2wPge1HY1F1NBpdtBezJ7FiSFs7ygtYH9AdW4MV+CLGHfZs65UXlaLLsyPZ3YY+YifQPlGqsT2kN+L7HGGL6+Pao/uOyVfZxd5gJkji6KUpweJho/FhhTMc0Bl9e6lw3f9zXEo+f5+jFzvAKXMwfeR05Nx2gAN7CdA5+GMcTp0M92bHU7FPGmscf2uizDzmApmDnogn5hcUY6FyDjwm1iBVmQnt1eRMLDxHf4elF9gxX++KeERpu9watRpwdGS7Q/s+GlUV1I7dIGvvg+0LQ62JQLsJGPF6uN0x6AEiIHoCJIroS0gJmIIAiWIKyhRD9ARIFNGXkBIwBQESxRSUKYboCZAooi8hJWAKAiSKKShTDNETIFFEX0JKwBQESBRTUKYYoidAooi+hJSAKQiQKKagTDFET4BEEX0JKQFTECBRTEGZYoieAIki+hJSAqYgQKKYgjLFED0BEkX0JaQETEGARDEFZYohegIkiuhLSAmYggAvUeRyuSnGQjGIgMUS4CWKxY6eBkYETESARDERaAojbgIkirjrR6M3EQESxUSgKYy4CZAo4q4fjd5EBEgUE4GmMOImQKKIu340ehMRIFFMBJrCiJsAiSLu+tHoTUSARDERaAojbgIkirjrR6M3EQESxUSgKYy4CZAo4q4fjd5EBEgUE4GmMOImQKKIu340ehMRIFFMBJrCiJsAiSLu+tHoTUSARDERaAojbgIkirjrR6M3EQHTiaKuwuUq9me12ce28+Nwo7+RbaISU5iOIGA6UY4nISz5JG6V5ePixONQJA7uiPFTH5ZIoDwBvgGroWg+tsB1qEwPQ3aEK6IOGH4ZiHWV6Rh/IBIjFj6CT8qS4Mt9rfgA/oHnEXM6BmXPBWD1vR1qnwszAQPTidKQzJlYT4RiN4liguJaQoiMIBtkhdcjb1rTaFr6ne5bJdLG98Hm4As4Gm2HjKDeSH7mFErjPA0fhk1WOOoNOzRBokaIko0I1314UW9ydgRc972oXSm0H/azb9k4BBcswvKiKrjHFkG+YkRjKiSKCapqQSHaJwq3i6yE99NleHebM+ZGOmHfuWQMtzdIKCNILKJkIMgmC+H1edAuEs0Hzv0cWYHFe/MRN9YJGpUtZAb3ERLFgmaxCYbSmihJ3Tdi3kjdAGRDwzBpWJeG0WhQEtMPI9fcwpQ9FcgMMrSkhflmghy4EEbsKDxEuc/WSKKYqLIWEqb9onCbije84m9h3tfnkHzXdkKiWEhZaRgdTaDdRy9lCvx67sDEj3siIWUATpbGweCGcu8JpqMH3Ep/RuwoeZjqnASfq0cRzXZLZbIPXA/PbbpctXGGpB3FRJW1kDDtE6Ua20N6I77PEfay53Gk+PXEjslX2cXepSkb8dxR2Bly8TCM/rACzs6PoN9TnVDUZTHq9G8hWkuEu/Szd4J1NTdxC53xqLMtPOcXoDi+v4WUlIYhBIHWRJl5zAUyB31ET8wvKMZC5Rx4TKxBqjIT2qvJmVh4jv4OSy+w+7DeFfGI0pCcWgWVrQz074ZCTC/q09IIGHH0srQUaDxEQHgCJIrwjCmCBAiQKBIoIqUgPAESRXjGFEECBEgUCRSRUhCeAIkiPGOKIAECJIoEikgpCE+ARBGeMUWQAAESRQJFpBSEJ0CiCM+YIkiAAIkigSJSCsITIFGEZ0wRJECARJFAESkF4QmQKMIzpggSIECiSKCIlILwBEgU4RlTBAkQIFEkUERKQXgCJIrwjCmCBAjwEkUul0sgVUqBCBhPgJcoxndPTxIBaRAgUaRRR8pCYAIkisCAqXtpECBRpFFHykJgAiSKwICpe2kQIFGkUUfKQmACJIrAgKl7aRAgUaRRR8pCYAIkisCAqXtpECBRpFFHykJgAiSKwICpe2kQIFGkUUfKQmACJIrAgKl7aRAgUaRRR8pCYAIkisCAqXtpECBRpFFHykJgAiSKwICpe2kQIFGkUUfKQmACJIrAgKl7aRAgUaRRR8pCYAIWLko2IlyjcKABgmPPCXg3MxUzvOx5Ycl+qTPWBshRGNWdV3tq1HEEyhN8EbBaoevwsWGY+0EqFk1wB1e57AhXROmLqm0QiHWV6QjThz+zFCOm3sbqsiT46n9XngDfWcCm4nj077hh8u7JwkXJQJBNFsLr8zANGlzbH4nRL9/BOtVmjOeRokZ1Hbfs3dDNkUdjatKhBM7EeiIUu6FIHAzNtTSEDlgMj88rkMJmfkaQDbLC65E3reWQimWD4LXsB8z8ogIb/BvanImFZyiwW5GIwR06Un6dGSEKW+VHZMHG6QR2nqhGF5/F2HMwDsP1i3x2BHzLxiG4YBGWF1XBPbYI8hUj2GiUOBQ7Ga9v+ho/13kgZGM+UiezFaYmCy977cPEi1sxRdvHFaz+61go4v+DNWMMReG+O4NYHS0w/mxl8kXZuGAULFqOoip3xBbJwYUyXM0C11UivXGpAjTyNEwNfQuHrwEPDZ2FT3ckYpyLDpbyUCwmv74JX/9cB4+QjchPnQx3fpsXP9pW1MpQFC7tPeGOWD26EgVvPNyGKAosGxQC1V9lyNKsQgVnlrb0ohOFm7wfYdTVI4h1VzEAQxD12K6mhDKCYBNZgcV78xE31gkalS1kMnsoU/zQJ3caynJnw13F+ui/Fv6lJ7HwCQ1yprhgTcBFFER2ARTLMGiUEusrUti2e7co6hNvYuCEH7FamYkgNoG5lSmyYjH25sdhrJMGKlsZWKjGz70rVz6my6Lw8P5vsdbHFteS/4oBJxdAuT0E9soU+PXJxbSyXMxmeWUE9cda/1KcXPiEFU3vjkvVUBT1xVRMHpqIPx/RLXBcXZK6b8S8kbp4sqFhmDSM1V67Tq6Ed4AKn5b0xJvDr2KtfgcRpyj64xBLrCQGHlPssFefECdKVjjq79pXq5Hi1xWpfZrgfLXmb7jxdsP2WxyNHtFu+Ko0DtVsy37V6SDOLvFknXOizMQxFxkc2E/N7yhtbeH3fN8ctkaF61VANzcZbjORu6b2wUZ99b5ag7/deLtZHh03kaTeEyfKsBQVHnWug0rZBVM+/198NkG3dd9PlCsrvRGg+pQd2bpgpXcAVJ/q5BLpjmIgSvPJ16Io5VjcdzgOj1+DGQObpkjvMbMw9knuZ912i5z1UI55BwO+KQC3uehEMYjVbHb9YVEM+itf3BfDD4/HmrsHiFm6AdKnnQSadpR+2hPDh6Mu4Gh0kygt31GuMDl64X2FC2RsZaxVKfHY37/R3nNEKsoWhP6ajxnsmMNdvAbLE1CTGaRD2aIoQHF0D0xSp+P7tHHg7tbKr4pQ7f0s9C+wqtcHwGfr7/jt8QU4xx2FdJ11rCiaHExx+RCjLhwFVzNN4QKM2PA0jm8LhzO3q01SI/37NIzTDRBF1d54lucbtnbOI8k3v+uOwi2mE1T45NIG+DccmVsUpZodf72+xTIla8cR4p571QkHzy6BpziPXtE45dEJd9S1qPl9DDaU52Baw4W4NVGgKcHKgGCsOn8HDrZ1sHtqPnYeWgIf/RspbhJ3nYtuB3VvRhqsM0oU/WWeW5FqHXSrk/5Sr8yZjpHTc3DbwRa1DwzDisI8RGtl0KBkZQCCV53HHfZdnd1TmL/zEJY0DlDyc7tDE7z7Ml/NpkVvpAbqdhXuJDDzmK4uuo8n5hcU443DfvD6dhmUja+6ihHdIxIux85iSQ2TZlgKVI86w1b/WOA6VBq+qenQDO7uzIi3Xk2rfKhKBVuZrGH15zlKdRWq0M3Mr2zZxV9Vx14ytPTeWI0q7t5C75R5FtQ6mv0hUVp5DW4d5ChLqyJghChsxb18G069umnvGvQhAtZAwAhRrAEL5UgE/vAdhRASAesjQDuK9dWcMjaCAIliBDR6xPoIkCjWV3PK2AgCJIoR0OgR6yNAolhfzSljIwiQKEZAo0esjwCJYn01p4yNIECiGAGNHrE+AiSK9dWcMjaCAIliBDR6xPoIkCjWV3PK2AgCJIoR0OgR6yNAolhfzSljIwiQKEZAo0esjwAvUeRyufWRoYyJgAEBXqIQMSJg7QRIFGufAZQ/LwIkCi9M1MjaCZAo1j4DKH9eBEgUXpiokbUTIFGsfQZQ/rwIkCi8MFEjaydAolj7DKD8eREgUXhhokbWToBEsfYZQPnzIkCi8MJEjaydAIli7TOA8udFgEThhYkaWTsBEsXaZwDlz4sAicILEzWydgIkirXPAMqfFwEShRcmamTtBEgUa58BlD8vAiQKL0zUyNoJkCjWPgMof14EJClKdoQrog405O/YExPezUTqDC/Y80FSvhRDn6vEv66twxg+7dtsk42XOq9FgLwQUd0NG7O/dX+d+4P2bpDxGlibgSyqQXmCLwJWKwzG5In5BcWI71+OBN8XcDFejo1BXOLcz7OATcXwSjSoW+OT+ufMm54kRckIskFWeD3ypgGaa/sROfpl3FmnwubxfGCzPw9+XYPObjJ+YrXZJSfELdi7Nf9z42cQ6xkK7FYgcXCbnYi2gWEtdElweQ9BktNSfH92CTy1PzfjcCYWul8lwlLQGCWKpmQNJkYsxclrLG/3YGwq2IwQFx0G5aFYTH59E07/wr4a80/szpwBr4YVMzvCF2XjglGwaDmKqtwRWyTHihHcQzmY+3wMdl38CXWPDMTCnQcRN5x7KBsRI7Jg43QCO09Uo4vPYuw5GAftV1DiUOxkvL7pa/xc54GQjflIneyundzNi3Mm1hOh2A0FNyPLE+Cb2BVv2azF9G1y1E1IQ+We1+DMxXKNgnYj8pyPguJ49NdPT8017Jg9Hm/ksoQfGopZn+5A4riGhLUrYiK6vmWDtdO3QV43AWmVe/CaM/f7AOgW1UCsq0xHmL6/7Ai4RuWh5uYtoPOjcLZlLdZVIn1wEkaP+w/ekm+EdrFFNT6ZOABfhMuxLdxZlLK0LMo4bPlFA++ki2wxuyJVUcqxuK8/KtZeQ9o44FpKCJ7+Zg6ub3oRuPIBnh50CDPLcjHbvQ6HZjyFf3gcw9klntoic9AiKxZjb34cxjqxldZWpj127Jvlhg3DT+PfkS7QFM6Bx0wZ9mtXkwwE2XyEUVePINZdhT3hQxD12C5UpPhCmeKHPrnTUJY7G+4q1q7/WviXnsTCJ5qJoj6BNwdOwI+rlcjkZh+3Wg3ZguEZR7DhpV6Aug4ymWPTJGxhNeNEG/3dUlxgW5TsWiqCB6yH/6lSxGnT0q2QW4Zn4MiGl9ALatTJZGjqkcshC+H1eWAbnMGnpR2lGusDumP7lBsoiOzCPEmBX89jWPDjdoSI9HjWsihsu1g6Cbve43aNV7BVmjtKNba/1B9/rwjD27GvYrLfULjpD9kZQbDJCkc9d+bhPuoqXL7thF7ddNPmXmj6eaNG2b6tyMnfj29uXMGJ3a5I0k6sZpOsJAYeU+ywV7EIx/y6IrXPRswbqevjqzV/w423dcctLs7MYy6QObAvmt9R2trW7/meWxiehzrjEpKH62LlTXVGks9VHI1mk7mlo8NdQrRHFHZUzJsKl3gvnGLHEiwbhFHK9dqFQayfVkXZXYKB7/TGJ0F78Jd/zrz7CNpWjcwAw6ijFysnVKcP4NOsz7D5k0I4LPoSJxeyY01zUZol1LIoGjbxemDhA2uQvvwZdGdHpBkeX+L1lkRpBBiBnX2H4/D4NZgxsClI7zGzMPbJ+wnJzes2zr/3fH/vyl84xwUxHiUojWPbVweLAiiYH6OgXL8LeDkabof1O5cZZkcHhGxdFHY3c16GQaO+YKeK6/DZa3BXa6tGHTCu9nZhhCj7MMstC+MubsUU7jhw4k24vd4Zh84vR38Fl/h1rLm0Af7sO+X6F/D8jRUoeX/IfXYU3VGuar0SG/yZgmzX6DfiApY2irIFob/mYwbrT8FW2MHyBNRkBqE4ugcmqdPxPTv/cfuV8qsiVHs/q70Ptb5zGSMKkD9dhqiuX+Ac21LsNYWY4/EK7HZVQLfQt3Upv9+O8j/4bXvTTqUvXvX6APReJofjqI9waXtIB71UaO/U6Jj29xVlMLdIuiB466N4+xvJiaJBycoABK86jzsOtqitdULI5q+wWXubN/yuDrUur2LXlynQ33tbm8DKjBD0n3MYD7Jbrd1TT6FTsQzvaOXgJlk0Tnl0wh11LWp+H4MN5TmYpg1VgpUBwVh1/g4cbOvYc/Ox89AS+DBrjBOl4TJfVwPdHdsZtvpLvfIQosdOwhalA2xrH0DfRbkoiGPSaOdSa6LoL/O1UClr4eAig0OzS/2ZpQPhm1QBZ5a35/wCFMfrXx8wGV2YjHv0MnbMpDVlL/rXw7UqJWoduGOw/jVvM16KlfD22oRxpyQnih43O36pml2EGyuhZt/Zsktye26gaqjVjnA0uFezKd94EQ5VqWDLLsn39MjuQVXohoZrkKBzQcPGcPdFvQPCqVWNLzUayXIvNOa54Zj29Sl9LIGAEUcvUw67tWOLKcdgyljVyHvnZbyTdgGjtp1HCnd+pY9FELBwUdg//l2+Dadezf+xziLYCTAIDeQHduO614sY0/uurVWAWNRlewhYuCjtSYXaEgHhCJAowrGlniVEgESRUDEpFeEIkCjCsaWeJUSARJFQMSkV4QiQKMKxpZ4lRIBEkVAxKRXhCJAowrGlniVEgESRUDEpFeEIkCjCsaWeJUSARJFQMSkV4QiQKMKxpZ4lRIBEkVAxKRXhCJAowrGlniVEgESRUDEpFeEI/D+Jx1AvBFyyIAAAAABJRU5ErkJggg==;" parent="lG4Si6NppUaspvrfnCq9-9" vertex="1">
          <mxGeometry x="1" y="23" width="202" height="240" as="geometry" />
        </mxCell>
        <mxCell id="lG4Si6NppUaspvrfnCq9-3" value="&lt;div&gt;&lt;font face=&quot;Courier New&quot;&gt;products&lt;/font&gt;&lt;/div&gt;" style="swimlane;whiteSpace=wrap;html=1;" parent="lG4Si6NppUaspvrfnCq9-9" vertex="1">
          <mxGeometry width="210" height="260" as="geometry" />
        </mxCell>
        <mxCell id="lG4Si6NppUaspvrfnCq9-10" value="" style="group" parent="1" vertex="1" connectable="0">
          <mxGeometry x="170" y="440" width="200" height="180" as="geometry" />
        </mxCell>
        <mxCell id="lG4Si6NppUaspvrfnCq9-5" value="" style="shape=image;verticalLabelPosition=bottom;labelBackgroundColor=default;verticalAlign=top;aspect=fixed;imageAspect=0;image=data:image/png,iVBORw0KGgoAAAANSUhEUgAAALYAAACVCAYAAAD1yACcAAARdElEQVR4Xu2dfVyUZbrHv+SoLFKOmeBHqVXxvcx829QtETmuL4FHlJQFC0NTUzdPHte3KI+todiWx5fshMpqKYsZYsKqRAm1RnZ0KcuD0hG1VlkdcplSJx0n2ecZBkQUmgFK5p7r+Q/nvu/n+v2u73M91/30+XR7lWoXTl4FBQVOjpRh4sCtdcDLFbBvbahyd3HAeQcEbOe9kpFu5ICA7UbJklCdd0DAdt4rGelGDgjYbpQsCdV5BwRs572SkW7kgIDtRsmSUJ13QMB23isZ6UYOCNhulCwJ1XkHBGznvZKRbuSAgO1GyZJQnXdAwHbeKxnpRg4I2G6ULAnVeQcEbOe9kpFu5ICA7UbJklCdd0DAdt4rGelGDgjYbpQsCdV5BwRs572SkW7kgIDtRsmSUJ13QMB23isZ6UYO/CxgW82nKaYVbY1N3MgaCdWdHagHsFN5tPlqggtymN765lYcmhfIGLZTmNDTnb1SNvbUGH+m76ksbzhrz25ibH48Ax85wcKCdYTqNUn/ezKszx3NjoHBrCysaknZvG7xAwm+7sdAZmXnsrC7Nt56kFWjY3ju/WPQZgDTEt8iYahf2drBK6m8ZOCsbHK1SfmV17urDzP+mMj8EQHUVCbrAWwr5tPf0qRtK3yqSb2A7Q7PxCHmBY6B7YVU1J9D8wh8YDnNFh/j8+cDQf/bPiSBihK1ORSvlEhKMyZUiKw+31Yyotswxz+dvFcGYDj1Cv8WmE7UmWymfX2TtR0rVl7PeiqJMffF0W5XEWsGVu9rHcDOJ77iqXU84RX3sVKQFM2YZ3ZyzGcAIzvl8/mALKnYDZrvasAe+ibfW3uz/EQGE24Gn0tgbyXckESYJZNYe7nVONnzBqc6TybkvHNg67N2RPqwMugs2U/dXq2jdQC7fM3NhHqlEFmqCS//p8IXuL/nR8w8ms4UPxOJYV1JeOAjAdsdwdYq9OKIt1mkt5JRyU5X7KGHHiM+IqBMcfshTA7pcPOKX+6J/jYYeojH4iMom9WeIZND0GZpL4prrazlRCLjeiVw7weV3iw38fWnAVt7ig2pj2FLG2+/pautiNlyle++v0rbFgYa3dagaVAouGoqtt56HOzBs+03ELrjV7w0yblW5EfBrtRTD197lk0dawa7zxozLX1tmE0tGL/rf3ljhNaX13D9ZGD77p7GhS2hLoH9z4tX2bTvOwpNV+zzvBt78UjPZgR3+4VCADVUKTWArfXUvi/cz8PvGWlyegDv1LbHtiYxrOlWxl8ub0Vgc6gXKZGlZPRwphXpRtp4P1Y8/CUfzrwVYOfOpE3EFZJPvs7gJlayYgOY1qrmHlv/Hwi+vLuEk9/YCNAqdftWjfn0q0tcuFzKb/vfzq87eTdUIhSJq2awe1oziPYLI7nlXD6rLdiUaCC3J3HIYd6brX/VsJI0rCnbH3MWbG3LqrcsI8xssLNVvfV1qNjlm8dL2uvhEt5+Rrwp30SWkPPMIB5JLMLX9w6aNynmh6iae+yvz9lYvquETv6NmfUboz1ivYIv2n6OplrlDrjTcIOKEfc3o0vrxoqAdetklH3us3Hh3LfQvCW+Bkceq3wFKVzamy7rh/I3J8Auax2u5czebozVNJqymDkskj8XGTDYbDTuMYcd7y6g7xEN2D5rMLf0pWLW8LWc1SZd38o6Ho7hNVftOoDtRCIsZswGI878d5m8ry6T9OF3DOvhQ9gDzSoWX5R2jnMXrt70Znqr8mJES5oavJwIRoY0JAesZjM2o7HaT8R1jfWnBduF6P7+TxsJfymxbxjnjGhB40bY25KX95TYwf3hailXfoBfaDB/f6UUg7apfCrEKBXbBY89aWiDAVvvsV/ReuwTGsx3+TbC2Ow2vj53BasNe4/t37wRmV9YiB10B5s/+o5BXX0Eak8i1UWtDQbs8p56o/ZV5HilryKjejVjUBf5KuJiXj1+eIMCuzwb+nfs85eu0sYo37E9ntBaGtAgwa6lFpkmDlQ4IGALDEo6IGArmVYRJWALA0o6IGArmVYRJWALA0o6IGArmVYRJWALA0o6IGArmVYRJWALA0o6IGArmVYRJWALA0o6IGArmVYRJWALA0o6IGArmVYR5RLYBQUF4pg44BYOuAS2WyiSIMUBzQEBWzBQ0gEBW8m0iigBWxhQ0gEBW8m0iigBWxhQ0gEBW8m0iigBWxhQ0gEBW8m0iigBWxhQ0gEBW8m0iigBWxhQ0gEBW8m0iigBWxhQ0gEBW8m0iigBWxhQ0gEBW8m0iigBWxhQ0gEBW8m0iqh6AdtyeCfJ+02am9cOdhdrxYFb6UCdwbZmROM3oYin/hhN4Pm76PfMaLSDgcuu/MX0+s1ZXj61liH1oNJS/BUXm/2SVj71sJgsUeZAagz+0/fc4EbgrGxyFx4hxn861/3qOC332IoQgj6I4vCOSbTQZlsznqTLS53Ies3G48ErKay6omPez2V7ncG+/jjgqmFbKD5tpXlb7XD5elBUcaD8hHpYTJao4sBNzlJnM6FeKUSWZnCD5daDzO42iosbTvL64CPMCwzi1EoTW0KvZfpW5qv2YOfHM1B7MgsunONbmpedm13xVKZee9IDZ5Gdu5DulWxMjRnI4aFhZM9fwr7iAObtK+DFfvpjf5BVo2NY/Mkp7Y8AwtZnszHcT6v8Zff6P7OJS95+GL2hrKJUXvVGUvX77Ov3MJ8uW8OB8+0Y+Wo62yZ0sA80pc1g5Oy3OfGdjTu087y36ed5azlJjbmPpG8ak5NzhsEje5O3K4fbo7byybpQrTKZyJo3jifWH+C8rR3h6zJJHKcfdq/C5SLY9iodTZvn7yM9djcj0ifyZWYsWrYqLvcE2xF+jRW7yiHz5Yp1wdOK4ngncwEhzawV563nx3VlcNFqTiUNhVNrCH/wM6aeXs8ox0RXjdLHL2qfyxerB2A48hx9+x0n/sIWQtnJ5Lav0/fTvzDNz0rO1HZMMu6mMKEn+pw3x1wmnTCabh3P5XQI80kn1pZG8JpBdE6fwOH0KQSYtWrWfTWD8z5hzj0qg72c1uuepr9dopFeYyPoo/ceZeWBpGGdmZLTgT/k57Eg8HofXM1XfbpY+4pdR7BTIkvJqPJ+K9n6KN3/o4ixc+fx2LhB9KrSwrhq1PXjq7xWLYfZmZxG5u7POPP1x2z3X06pFlDFHA1/r5RI7d9wvI7fxDzoThI7r+Ppsiyzf9WTnJl7o476TNDPt1Z1FbsmsK1kRPsR9s6DbDieSWzlcq0F7mq+6lNrgwJbF2Y1f8qeP6XwxsYN5HjP5/1P5lRsRl01qlqwrRlEt5nDbas2seTXrWF7LO3ef+JHwF7O0a592TtsFbE9rqWg/ZDJhJR1N25+1aIVyZlKuyhYMu0AcwteoGhL6HVtmav5qk8DGxTYOye3JWXoCZLH613rx/yu7RM0zzrKEkcrXd4mZMY619VWC3Z+HF0HF/M/ptcZjJWDs7vR78vFPwJ2Bh1mtiHCsoljWqukf5gx7d9HSe+H6OJcOPWZt59gLVfBPkRc1yA+iztBxrhDTNUJT9Y3ku6+eayxFXFsHm0XOPctNG/pi6HSJrK6J9l6cCnBYcs4etUbw6VLNAvfyP6N4RUbEr1V6RT7Lo18td2jE5+Pqm9FTGwO787UvY3wNTSmY8em5Bqf5bK2+XlL67HtbdINrYj2ZUDb3C4NDmPZ0at4G2w07jiLbVnPM0CJz4/VgT2Jv/oZ0Rwvuxx5vEvbb9ydNIL8vAXorXXJ5lDaL7mX9z5PsG/C9cutK/ZPUDq0dsSMzWi0V8UbLqsZs82I0fFjaow/VT/DDl97lk1jnYjMYsHi43Pz+9Q03VJMMa3ke7oTFt+qIXVuRW5V4HJfcaAmBwRs4UNJBwRsJdMqogRsYUBJBwRsJdMqogRsYUBJBwRsJdMqogRsYUBJBwRsJdMqogRsYUBJBwRsJdMqogRsYUBJBwRsJdMqogRsYUBJBwRsJdMqogRsYUBJBwRsJdMqogRsYUBJB1wCu6CgQEkTRJR6DrgEtnryRZGqDgjYqmbWw3UJ2B4OgKryBWxVM+vhugRsDwdAVfkCtqqZ9XBdAraHA6CqfAFb1cx6uC4B28MBUFW+gK1qZj1cl4Dt4QCoKl/AVjWzHq5LwPZwAFSVL2CrmlkP1yVgezgAqsoXsFXNrIfrErA9HABV5QvYqmbWw3UJ2B4OgKryBWxVM+vhugRsDweA1Bj8qx6UqXkSOCub3IVHiPGfzp7KHjkOjj22IoSgD6I4vGMSLbTfrRlP0uWlTmS9ZuPx4JUUVvXViQNn6zMVAnZ9uunWa7l45LR2SvHsbqO4uEE/ZvoI8wKDOLXSxJZQtz9yWj9Weiejzm7Cfgiu/uTvHMVZx5G4prQZjPxdCv//PdzZYw7b3l3gOIrYRNa8cTyx/gDnbe0IX5dJ4rgAx+Hy+cQPTODO33uxeuKfKbCNIOnsDh731e41cB/9Hv6UZWu0ee1G8mr6NiZ00EvFQVaNjuHFv53BZmtN2PpsNob7QX48A2d8RIujOeS0HslIdrHrTD8W78lhTk9tWkES0WN+z7snbdze7z/ZtkuVo6Nr+3S5CLa9SkfT5vn7SI/dzYj0iXypHdmtOV9xuemR05sJ9UohslQ7Y1yXop2l7ZUSSWmG/tdWwg3/zcNFHzPbz0LWzF+x5J4dfDC3IybtDO7O6RM4nD6FALO2RvfVDM77hDn36Ivo5j7Am30388Hrj/JLLI6jp/V7LaJ97hesHmDgyHN96Xc8ngtbQjm2PIjR/1hM3orBNDGtYdDde5hyXovpyDwC//0KW09GkdwuAt4+SVRyOyb47OLo8ybtUPtJNEktW+/gvPsZfnYl32wcVlsqFJhXHdjLab3uafrbFRrpNTaCPnrvYb9MJA3rzJScDvwhP48F+qHqaoN9iMU9BrGp6xzinxpDSP97HeeOl7Bm0J0kdl7H02VOsX/Vk5yZW4r9ebCDPQa2F5KgVdVKz34ND5GVU/u2sy19N/uOneZw5glGf6TNRwPbvpQGtmPNqORAxrCdwhFr8Rv3FdPjIwjQb3LqbRa+2ZOswgSuu60CuDovoTZgW8mI9iPsnQfZcDyT2Mrl2l7rvEiJLM+t85HUx8g69Ng1VWw9NAsn9u5kc+pr/GnjcQZt/ZyNof8grmtf9g5bRWyPa+G3HzKZEL2tqAXYhUt78+C74by15nECfY+wNGgGzd/5EbB7/xeG+Y1Y9uxwrQY5LmMvxkb0sW+EPPOqRSuSM5V2UbBk2gHmFrxAkfYGvdZhuy3YGUT7LmfA3z9kpkaD6ZUB+O+dUdaKHFtO0G+/Z9WBRfYKaEkM4Y7dU7CljSd3ZhsiLJs4ljQUH+030/59lPR+iC52R1yv2FvDDbwaUsyH9iCSGNbhRR74sYo9/2OCWycTVvgeswO0G1sL2JfXgof6Vyk5HkW4q2Af0opUEJ/FnSBj3CGttdMIT9Y3km6/ebRyMK4PQSuK8PW9g24dm7KvRRw2e09hIm1ifyamXcTb28al27oyPz2bBX11iA6yNDiMZUev4m2w0bjjLLZllW/cXAfbejCOPkErKPL1huZd+aX5NIN3neSVxjW0IlqfY0qbSP+JaVz09tY2nc0Je21vpU2sRxHtEFsd2JP4q58Rzd2yK3AW2bkLuUvbK92dNIL8vAXorXWJtsdqv+Re3vs8wfGRwG0rtkOoxYzZYMRY+R1UwYUFs9mA8WY/WoopppWj964rSFYsFvDxuWkQNSxuxVxswaeV8bpXaF2jkfm33oE69Ni3PniJQByozgEBW9hQ0gEBW8m0iigBWxhQ0gEBW8m0iigBWxhQ0gEBW8m0iigBWxhQ0gEBW8m0iigBWxhQ0gEBW8m0iigBWxhQ0gEBW8m0iigBWxhQ0gEBW8m0iigBWxhQ0gEBW8m0iigBWxhQ0gGXwC4oKFDSBBGlngMuga2efFGkqgMCtqqZ9XBd/wLskED1kHGHZgAAAABJRU5ErkJggg==;" parent="lG4Si6NppUaspvrfnCq9-10" vertex="1">
          <mxGeometry y="30" width="182" height="149" as="geometry" />
        </mxCell>
        <mxCell id="lG4Si6NppUaspvrfnCq9-6" value="&lt;font face=&quot;Lucida Console&quot;&gt;users&lt;/font&gt;" style="swimlane;whiteSpace=wrap;html=1;" parent="lG4Si6NppUaspvrfnCq9-10" vertex="1">
          <mxGeometry width="200" height="180" as="geometry" />
        </mxCell>
        <mxCell id="lG4Si6NppUaspvrfnCq9-11" value="" style="group" parent="1" vertex="1" connectable="0">
          <mxGeometry x="460" y="460" width="170" height="110" as="geometry" />
        </mxCell>
        <mxCell id="lG4Si6NppUaspvrfnCq9-8" value="" style="shape=image;verticalLabelPosition=bottom;labelBackgroundColor=default;verticalAlign=top;aspect=fixed;imageAspect=0;image=data:image/png,iVBORw0KGgoAAAANSUhEUgAAAKkAAABZCAYAAABFRwQ2AAAKiklEQVR4Xu2dfVQU1xnGHxI0W+XoagsYRcUslY+IRrEqaFTkqEDB4wcBGyUqSYmVVSuhItRqtIqVpqZRqgaNxYgGo4gFz9GUVvAL9YgfqEGg4kcVo8tJWU51Qzfb2juzO8sCuwuL4rnLvvOf7sydd57nd997Z/jjcXrKDlg5Kisrrf1Mv5ECHa6AU2uQdngFdANSoBUFCFJChHsFCFLuLaICCVJigHsFCFLuLaICCVJigHsFCFLuLaICCVJigHsFCFLuLaICCVJigHsFCFLuLaICCVJigHsFCFLuLaICCVJigHsFCFLuLaICCVJigHsFCFLuLaICCVJigHsFCFLuLaICOwxSrboGtXBFP3lXqyprau/iSfeBcO1GZpAC5hVoJ6S5eKvnFgRXFmNRH/MDlyUrMBOHUL1xGKCtxK74OVh14Apqnb0RsmonDn4QCIHL7Agn5Mx+iiNzySLLCpQjLSgYn1Q3PyMUWx/thm9aEIKb/KjA0qISpA44hoU/SUKPz64jPUi4thofTQxFReJlhOUqsOhY8/EM1/nx5UU7IdVCXVOPrv1cRdDMHaaQVq8dimFnlKgoiIeH7iwW+0/G7TX3GJi9CFJbeciOgFPObDw1mdVNGkKz8VS7pmJwViSqTirRhV07aNNYXLyUAoV0XlkyFDOBQ9UbwdoJl4eNkJrOaP0snmV8LC0qd83BzGX5uNktEOE/LsfVwEKxkx6Z44JU7zJcXaWXpu7iQfwdIYgKMIVUi9KVYxH7z2QUfx4Fd+Rinns+pkn3yJ0H9/xpeLS78Y5cKtrRRdkIqdA9N4wYjeu/+QIuCQvRPf8GNo002YJ1PkglB7IR4ZSD2U+PwLhKV6/F0GFnoKwoQLybCpmRPtj4xhn9cl/2EUaHrEbdKCU+XJ+CqOFySDLpl/v/4MOKAEQWvo2CUynQa9jsHmbM6WgeuBzfAqSTy2KRFuWhL3nQJLwX8lpj+yhNhO+YzaiPOYwHeyOM2osnOBSkTDzn3Fjo8mIMz26yJxX+R3sfpzM24Nfbs1D6yjKcuLhOhFGAdPXdIbhfMxyHH36OMOMkJ0jNTpJ2QIrqDRjhnYr6JRdwY9NIx4bU5ehCPGYzVT9BJUh92f61FnDtB/2LvgZH3/HEsgHFqFjnJ0KqrJ2H4PrD0CyvwldxbgZvCFJbIDW+pLa4SIWM8f3x5fRt6J+WgSHnLyHFuCF1tE5aokTfqO+x786nmNhVi8I4Dyx0FfakA7A9uA/2RVbjb4kebBbrf1vctxFS8e1+CoPSbx1eP3YVG8X1/gjmuKQj8N5JKHsBqk2BcD+e0OSFgcvluKOLsnFPWrd/BgalDsYJ9mL0asZ49P8yGvfYS5TUCjrhci+9ODVArWqAzE0OGaQXqDoULxuPn2Y+gItLD/TsWov/vm3Yk6ryMH/cfOR9K2PnN+AlnxUoKNLvPU0/QWmL34fn9BqkV7G9rpvwIhWACR/rx/P1egWne62EztG/VVmANCBDjR+6OBunSOjWR9gdWYz3PafjcaYKeyOEiV+GZMUEfL2min1ZMWDaefekVtqFRg21s9ywtDc7z9pvloZszzUd3c1o/BeqgI2foF5obXQzUkBUgCAlELhXgCDl3iIqkCAlBrhXgCDl3iIqkCAlBrhXgCDl3iIqkCAlBrhXgCDl3iIqkCAlBrhXgCDl3iIqkCAlBrhXgCDl3iIqkCAlBrhXgCDl3iIqkCAlBrhXgCDl3iIqkCAlBrhXoFVIKe+eew87fYGtQtrpFaAH5F4BgpR7i6hAgpQY4F4BgpR7i6hAgpQY4F4BgpR7i6hAgpQY4F4BgpR7i6hAgpQY4F4BgpR7i6hAgpQY4F4BgpR7i6hAgpQY4F4BgpR7i6hAgpQY4F4BgpR7i6hAgpQY4F4BgpR7i6hAgpQY4F6BTg6pBrV3n6D7QMtp0tw7RAXad/pI+ZrhmPLoD7i/dZIFK80E9dqr6eVpCAr+hGUuNx6KpUUoSfVD7jx3bPEvQXGSPo9R+Hf+NBY2BpZs3TLUHvrrbrAU7EVoEnkfutWQgq1CXkI4FmddQ53MC+G/P4S9cd5iJqkwdtMhpbA5IVVbGq8b+oelIGtrPIZYypq3wQf77qSaWtRoe6KfPrTUzNGJIJWezkwinpAqGFscjUP/2o8ZzVIG9ZcJSXhiqD2E0Gz9YVmb6g0jMPqMElcOxcFDV4g4r3nodvABMoKaJhg2Fdx0PA3OJo7AxMu/xMOihWCpm8902Aip9Qx6VV4Cwhfn4B/fAb39k3Dgr1IsuAqFydFYsPMC/q3zxIwdXyEzWsgZFQ4hCnIjev/KCVvmf4FKXRh2PTqMd1ysPFduY4eQuonxbFUhkqMXIONsHfpNC4bsILDcNPL8meTi4GILkC6/9Cp+EHtUjG43jcK0HdJyrPQJhyb7Dligs3iozuXgZJepiAroZWZsC9Df+i2GjnuIbQ/+hLHPKJuNkFpLTmaz2PmPePPBWSS6aVCoHIV1Aw7jxHIvqFjw6uCCubheEA8PtRB0uwUTL51H0gBplr+BPSOzceLTtzCQpTjr5HK0ZZVoTIKW2oMWeTG9keRWiGtbAoGzi+EfdBtrHADSnNA9QFoOZn99BIh1ghgqPFeiw1InTUefHUswRjxNjuGzohDQy/rqI0yA9D47sER/EeTDZ4nwNunMWjVOrhiDaVUrcZsV8YI7qTVIy7DGfzx2+yQh7RczETLmdbiKpNWxKOveyBzc+GDnNv8cD5dLIpoTsG1TryWkwlgx6FJQAZZS3lS4tg3J/1kWOqkA5fprCoQ92YP0O2OfE6SN+0xpxbIO6bs4xUKRnR9/C83Q9bhyIhnelnZiNij9HDupcFcNbh/PR3buNvw56xbG77+KrIhv2PIxEsenbkacf2Nlgya9h5DXpE7afL/UticwD+kCyItYprvYpR1nTyp2zug8xLh9jG98T6FHQls6Keu8LVaZUiR6RgEHG5d7U51bbiXMLPfVazH0zRpsFmPl2+altbNshNRKBv3NdEz42XfYfGE1hMVXkxmCHkfjocuLQYmyL6I0u3Fz12RxGVedO426EeMMs+x5dtI6bA/ug32z7uGkkkVlqzYh0P04EhxhuTcs78JLj3fqZYTuaS+k7DUrmXXk2u1Gv0oTPRHT5S8W9rvm9qR1bO86CJmhVXofnvGwEVJrGfTss8X8MZif9wQymQ4NL/lgRUERUoRQe20pNgRH4ncV/4PMWYcuXktxoHAVAsXtQDsgNbw46diyUo+eYs678QXq1nZMGfUBzr/sAtmPuuPlcj+kdwZIpU9QDWqoGmRwk8uMz9yku2lZI3GLRH1GWyDVL88yCSLFUhSVpMJPW4mMGSFYfe57ODO/dD0jsfN0FmYw3oR7vXvKDez2hkOBpUUlSPVrtmqVJUMRpsZnz6Gb2gipoS6rGfQaqNXOkJv7LMQ+GdXC1bBXbWV6mfkuyFzRi9jqzNSyGnSshra8frU6mOOeYNXnFydL+yB9cfXRnUgB+/6LE/nnGApQJ3UMn+36KQlSu7bPMYonSB3DZ7t+SoLUru1zjOIJUsfw2a6fkiC1a/sco3iC1DF8tuunJEjt2j7HKJ4gdQyf7fop/w9+Q8xXQJvcRgAAAABJRU5ErkJggg==;" parent="lG4Si6NppUaspvrfnCq9-11" vertex="1">
          <mxGeometry y="20" width="169" height="89" as="geometry" />
        </mxCell>
        <mxCell id="lG4Si6NppUaspvrfnCq9-7" value="&lt;font face=&quot;Lucida Console&quot;&gt;wishlist&lt;/font&gt;" style="swimlane;whiteSpace=wrap;html=1;" parent="lG4Si6NppUaspvrfnCq9-11" vertex="1">
          <mxGeometry width="170" height="110" as="geometry" />
        </mxCell>
        <mxCell id="lG4Si6NppUaspvrfnCq9-13" value="" style="endArrow=ERmany;html=1;rounded=0;entryX=0;entryY=0.75;entryDx=0;entryDy=0;edgeStyle=orthogonalEdgeStyle;endFill=0;startArrow=ERmany;startFill=0;" parent="1" target="lG4Si6NppUaspvrfnCq9-7" edge="1">
          <mxGeometry width="50" height="50" relative="1" as="geometry">
            <mxPoint x="370" y="500" as="sourcePoint" />
            <mxPoint x="480" y="450" as="targetPoint" />
            <Array as="points">
              <mxPoint x="400" y="500" />
              <mxPoint x="400" y="542" />
            </Array>
          </mxGeometry>
        </mxCell>
        <mxCell id="lG4Si6NppUaspvrfnCq9-14" value="" style="endArrow=ERmany;html=1;rounded=0;edgeStyle=orthogonalEdgeStyle;startArrow=ERmany;startFill=0;endFill=0;" parent="1" edge="1">
          <mxGeometry width="50" height="50" relative="1" as="geometry">
            <mxPoint x="460" y="501" as="sourcePoint" />
            <mxPoint x="380" y="210" as="targetPoint" />
            <Array as="points">
              <mxPoint x="430" y="501" />
              <mxPoint x="430" y="210" />
            </Array>
          </mxGeometry>
        </mxCell>
        <mxCell id="lG4Si6NppUaspvrfnCq9-15" value="" style="group" parent="1" vertex="1" connectable="0">
          <mxGeometry x="460" y="160" width="217" height="263" as="geometry" />
        </mxCell>
        <mxCell id="lG4Si6NppUaspvrfnCq9-1" value="" style="shape=image;verticalLabelPosition=bottom;labelBackgroundColor=default;verticalAlign=top;aspect=fixed;imageAspect=0;image=data:image/png,iVBORw0KGgoAAAANSUhEUgAAANkAAADzCAYAAAALibMmAAAfL0lEQVR4Xu2ce1hU553HvzQjEpjKWAMmARPMNN42ihd8FGwImLWigUTQCKuwJq6rLNJYXSvRpWl1EwxuSx6V2JUagxEtahAvrDfaQFIB3aCWxCD4OBuMQuOwhqHBWRwR9pwZLgPMAONw9Mz45T/Ded/3935+v895L4cnLi3CD/hDAiQgGQEXUbLKykrJBmDHJPCwEzBK9rBD4PxJQEoClExKuuybBAQClIxlQAISE6BkEgNm9yRAyVgDJCAxAUomMWB2TwKUjDVAAhIToGQSA2b3JEDJWAMkIDEBSiYxYHZPApSMNUACEhOgZBIDZvckQMlYAyQgMQFKJjFgdk8ClIw1QAISE6BkEgNm9yRAyVgDJCAxAUomMWB2TwKUjDVAAhIToGQSA2b3JGCXZAZdNWrhBR+Va7+TlLLvfg+WHZJADwTskqwsSY0oHIQm1d80hEGH6lrAy0cFe7Xr1jfTSAIigfIUBIVuhsaMhnpFAYrXjUHOoqHYOrYYhavVxt+K/z7y8g3swiIMTTjRjV9bO6nB9q9kZUlQRwEHNalo1e6e46dk94zu4WiYFQ6X7Bi05MW2zzcr3AVxhfNx8Lt9iBTe8uK/s2Na0PFIGZJMBYq2deF+wLIgWQ4WTc6Gi0cJDpTUYXBgMg6dWosA49JkQOXOhYhaeQRX3AMx+9lyfBGYb1zJxLdGQl4DbtYDnkOUUCAM227swtxeZmEo3YI5i9bj7HXhQd8I7CjIRKQ3YC6ZNutVTPvQHwcOJ2O80uwNZexciHfoEbzch7HuB1COcZ8IWJFszfkn8GjccWNNyliyLIS7vI/nr32KJF8dDsWMR8JjH6MmPQjQbMA4/yIkVhzFUm8tMiJGIXV8Ucd20eaVrBzJo0JQs/U6ds4ArqdHYspflqF6x8vtkpWM/TX833LHtjN7jPKJP53hifFmI6YlDx3vtPuUaA7z4AhYkSw7bDeQItTDV3lAnGxXsi5FW7oKftEDcFjcAgoTU+TEoSk32gi325bOZsnqsO/VMfh5zVysSYrD/OAJ7ZcoYt8zDruj+cpA/KKqVBC+I5/2SKbTN+Nv/9cMn8EKPPKDB1cjHNlOAtYkE7aH73ypxqxbu7Gpappct4tdJDMXR5iY8ng8GvaE95Nkpi2o7sIJfJj9ETI/KITbm3/C2dX+RoEn7R2H2B8X4M8T/ohLaQHtlyn3Itl3t5qx6/TfoNHeMcbuNsAFL/l7IHT0o3Zmm80fCIEeJMubn4to7/fw19F/xqDlsjyTiZLtRtTtk1gsnMM0G8bBvzLFJFZxIp6cdwd7q7YjxNWA/MW+iPcynclarYP6lTvYV5WGgD6RP4IlPtmY8fVeRItnvpKfwed1T+RXvI07bTeX/34HSePC8FVyuXCANe0X8xYqsSnwGj5LHAxo0xA49BMs72G7KP5/yH97vA5V/9sEX2EFG+41ABeuNqLhdgv+YeoPMe1Ztz5Fy4dkRKAnyYRzg2bjRIxcdwFhu2UrWSLO+Q1Es14oxLvTsb08F6b6rkPhymC8lFEDpXIQPF1rcXeB2ZkMZVg/NgibapRQKtRYUVAM4Wa1hx8DSjeGIuLdCjS7KdDY6IHIzDPIFA5fnbai2nQED0tHYNEXSBVuYAylyZj0wnuoUSoxaPSPMfD0YCQ3WT+TfXOzCZuO1eHZoQOw4qcqYzziyvargzcxUFjRfH+k6BbjrHEeGPn4ABlVFUMxEmi7wm/UQdvoBm+VG9qu4jvtcAx5WOgdgfp02UpmukiI0umgUFn45qXXQadQwdo3aH2nduVICQrFZvMPG+gqoLBl1DVBpXK3oZL0QhuF0Kb3L3Lnr97Gzs/+hplj3REx3qN9jF/l3sTNhmaLY4rbyXfmDcFAhYsNMfFREuhOwMIVvvPd1l37rgmp/1VnvOxYPWswBjwC49bxtyfqjBLdbW7BnbvAo4JY/3enBQrhQuRfXlRxJaMx/ULAgmR61F69BY+nvWDLutIv0UjUiXgmSxPOZF8LYj2mfAQqjx/gm5t3YGiC8Uw21PMRnPxSj8XBg5BV9DcEj3KnYBLl4mHs1q6/+HAkYOIZLFO4Xfwfs9vFlyd4IHgkbxcdKY+OGOtDI1lbcsTvZN83NuNJFb+TOWLBOmLMD51kjpgkxuzYBCiZY+eP0TsAAUrmAEliiI5NgJI5dv4YvQMQoGQOkCSG6NgEKJlj54/ROwABSuYASWKIjk2Akjl2/hi9AxCgZA6QJIbo2AQomWPnj9E7AAFK5gBJYoiOTYCSOXb+GL0DEKBkDpAkhujYBCiZY+eP0TsAAUrmAEliiI5NwChZZWWlY8+C0ZOAjAlwJZNxchiacxCgZM6RR85CxgQomYyTw9CcgwAlc448chYyJkDJZJwchuYcBCiZc+SRs5AxAUom4+QwNOcgQMmcI4+chYwJUDIZJ4ehOQcBSuYceeQsZEyAksk4OQzNOQhQMufII2chYwKUTMbJYWjOQYCSOUceOQsZE6BkMk4OQ3MOApTMOfLIWciYACWTcXIYmnMQoGTOkUfOQsYEKJmMk8PQnIOAXZIZdNWohRd8VK4OQEOP2qu10IuRKjzxhI8K9kUt9ncLHk97wd0BZs8QHxwBuyQrS1IjCgehSfU3zcCgQ3Ut4GV3AXcAKV8/AT+98Vtc3zbdTkpF2DQ3DWfrL+Lk13NQpElFa9T32G8Wwl2yEdOSh9h77IHN7oFAeQqCQjdDY9ZUvaIAxevGIGfRUGwdW4zC1Wrjb8V/H3n5BnZhEYYmnOg2WFu7e4jCpib9K1lZEtRRwEG7C9hsDvpaVBs8+2+17LcYKZlNldbfD2eFwyU7Bi15Ha+4rHAXxBXOx8Hv9iFS2KaI/86OaUHHI2VIMhUo2taF/g7LUn8WJMvBosnZcPEowYGSOgwOTMahU2sRYNxbGVC5cyGiVh7BFfdAzH62HF8E5htXMvGtkZDXgJv1gOcQJRQIw7YbuzC3l1kYSrdgzqL1OHtdeNA3AjsKMhHpbXwNtb99Or1xxDfZ8iIMrihE4eOzMRvHcOzbyVh/ohCr/XuKvTUQi5JpkZ80H6/v+BzfN/kh8vcnkTHf17SdNJRiy5xFWG8KEBE7CpBpDNBMMuGZ5Glx+CapEB/NGwqIMS4BdhSvwxjhyfKUICzBDuPblj/9RMCKZGvOP4FH444ba1LGkonF8z6ev/Ypknx1OBQzHgmPfYya9CBAswHj/IuQWHEUS721yIgYhdTxRR3bRZtXiXIkjwpBzdbr2DkDuJ4eiSl/WYbqHS+3Z6LbllQc45U72Fe1AHv95gEfV2HBXj/Euh9Dxdvnrcfe1qOFGLXpwRhxNBYXjy6Fr06Y/5itCDl/FqufEgRJHoWQmq24bgoQkVP+gmXVO/Bym2S3f42KSRHIX3AUf14bYBKzyxjd5tBPdfZQd2NFsuyw3UCKsI3/Kg+Ik+1K1mUbVLoKftEDcFjcAgoTU+TEoSk32phfiwLYtF2sw75Xx+DnNXOxJikO84MndNsWWh9DkKx16V+wt+1s+GXnc5J57FYlq0N68I+QMeL3eGOq6aEzW/4Z364xbTPq9r2KMT+vwdw1SYibH4wJ7edNkdOvcPW566iecAjffjSr4yKFkknvvzXJhO3hO1+qMevWbmyqmibX7WIXycwLRpiY8ng8GvaE95Nkpi2o7sIJfJj9ETI/KITbm3/C2dUdVxJ2SWZpZe3238TVNACfzNyCxWM7amP49CV48RnTvw26CzjxYTY+yvwAhW5v4k9nVwuXJiKnRNQuCkX9IT3WXD6JxeIukiuZ9IKJI/QgWd78XER7v4e/jv4zBi2X5ZlMLJ7diLotFI2w99FsGAf/yhSTWMWJeHLeHeyt2o4QVwPyF/si3st0JmsvLuNWLg0BfUJ9BEt8sjHj672IFvdZJT+Dz+ueyK9423iW6Xm1tLaSWYnd6komTutJzNPvwhVhSyhex2vPnEbdxJ9gpBDTkSU+yJ7xNfaaAsTPfF6HZ34F3h7T8TL6qZDwMW//HU58kWo6u36zERMDqpCmFTgJL5FunPrEhg/1SKAnyYQdiGbjRIxcdwFhu2UrWSLO+Q1Es74RDXenY3t5LmKNb+k6FK4MxksZNVAqB8HTtRZ3F5idyVCG9WODsKlGCaVCjRUFxej5rG9A6cZQRLxbgWY3BRobPRCZecZ0sdB68dHUcBP18MQQpQLGC5CXdrXeYFqTzFrswqXI0AScaDK7nFGvQIF4OSFcXGwMjcC7Fc1wUzRhwI9X4ED+WwgUjDOUbkRoxLuoaHaDorERHpGZOJMZCW/ziw9BpMJlfphTvQmXhT2mN7TIihyDZZ88AqXbYxjtV4drIabDOH/sJNB2hd+og7bRDd4qN1NdCIXW6aLDkIeF3hGoT5etZKbvP1E6HRQqCx9t9TroFCpY+wat79SuHClBodhs/mEDXQUUtoy6JqhU9n7W7VhdrMbeU46FzwXix3UvC2EYhDk1CSxsifBe2thZgmwuQwIWrvAd+fuPI8cuw+pgSP1CwIJkjvznQo4ce7/kk53IkIBdf/Ehw/kwJBKQHQFKJruUMCBnI0DJnC2jnI/sCFAy2aWEATkbAUrmbBnlfGRHgJLJLiUMyNkIUDJnyyjnIzsClEx2KWFAzkaAkjlbRjkf2RGgZLJLCQNyNgKUzNkyyvnIjgAlk11KGJCzEaBkzpZRzkd2BCiZ7FLCgJyNACVztoxyPrIjQMlklxIG5GwEjJJVVlY627w4HxKQDQGuZLJJBQNxVgKUzFkzy3nJhgAlk00qGIizEqBkzppZzks2BCiZbFLBQJyVACVz1sxyXrIhQMlkkwoG4qwEKJmzZpbzkg0BSiabVDAQZyVAyZw1s5yXbAhQMtmkgoE4KwFK5qyZ5bxkQ4CSySYVDMRZCVAyZ80s5yUbApRMNqlgIM5KgJI5a2Y5L9kQoGSySQUDcVYClMxZM8t5yYYAJZNNKhiIsxKwSzKDrhq18IKPytVZ+XBeJGA3AbskK0tSIwoHoUn1NwVi0KG6FvDyUYHa2Z0bdtCNQDlSgkKxWdP1F2HYdmMXRqcEIbTTL9VYUVCMdU+dQPzk1Rj0wUVsChLbavCbkDBUrLqAWTlqJJzo2l9ruzH9k4L+lawsCeoo4KAmFa3a9U+U7IUEuhLICodLdgxa8mLbf9PtpW/WRrtzJkZkRuDyZ4kYILQdnjYN586vhbrtGQlr14JkOVg0ORsuHiU4UFKHwYHJOHRqLQKMS5MBlTsXImrlEVxxD8TsZ8vxRWC+cSXLWTQUCXkNuFkPeA5RQgHT22Vuj+UhjBV0GpOfv4B30z/H936z8f7RA4h9RhyqFFvmLMI7575FU9PjiNhRgMxIb6A8BUHLizC4ohCFj8/GbBzDsW8nY/2JQqwWzDZU7sTCqF/gVFUTfjj5X3Hg2FsIdGeNOh0BGyUTV6+NE6fg4i//AOXyeHgcuYQ0U1Gbfu6vZFkId3kfz1/7FEm+OhyKGY+Exz5GTbqwzmo2YJx/ERIrjmKptxYZEaOQOr6oY7toc6DiWL/C8OIvsTVQgUu/DMDk/0lBw55wXNn0Aub8dT3OvxcCV206goedwNLv8xB7SVgtX7mDfVULsNdvHvBxFRbs9UOs+zFUvKXFMr9/gmuOqb/SpHEIu7EZ/5s50+lq7KGfkBXJZpTFIWWerwnP8OlY8qL4xjb9GEpXYfTULaiPPoQaocY6HWlsrt2+Z8DCSiYWfjZiWoSCFvsRAvOLHoDD4hZQmJgiJw5NudGt8nc5k9kcaJexOoEz4Prpgzhw9DhOX6nGxZNfY06RBqlo25IKkpn2poJkrXHM2gbv+VeRkDIPRszXP8a63f7I5/a17xXhKE/eg2TQbMTEketQ/8bnuJQWICPJzMURJqY8Hm9caUwrrHSSaTZOxJRTkdif/o9QKy9h4wvL4Xm4F8km/hqKNx/Bu/8WBlVbsagmYO68SRjsKMXDOPtGwObtohbpwcOwf87vMCwlHc+dPY+17QeyB7Jd3I2o2yexWFhPNRvGwb/StIVDcSKenHcHe6u2I8TVgPzFvoj3Mp3JWq1r3cqlIaBPqKyvZPsiFXj/xVp8lijood2Jmc+8g/G9rWRvliD08b2I0PwRq3yF4A2VOH1+MH4yVTjL8ce5CNgoWd2+SAxfNwKfCruaJ9KDMWz/fFwTLkHaK8PmXVjfcVrZLibinN9ANOsb0XB3OraX5yLWGE0dClcG46WMGiiVg+DpWou7C8zOZCjD+rFB2FSjhFLRl2tQ65IZSpMx6YX3UKN0E25SRuFp4ZtcyLEqpA3oYbsoyK7NfQ1TX8vFLTc34cLEExG/+wQZ8335SaHvNeEYT1qRbFK6DkOUivY5hG27gV0RhcJZfQ4aMrTYEy6exMqQpH4BX62/jDxTYT+Iiw/TmSxKp4NCZeGbl14HnUIFa9+g9Z3aWfq20RcBxZkboNcD7u62fnUzQFerh7sXv9c5hjHOHWXvFx/OPX/OjgQkJ2BBMj1qr96Cx9Ne4OclyflzgIeAgF1/8fEQ8OEUScBuApTMboTsgAR6JkDJWCEkIDEBSiYxYHZPApSMNUACEhOgZBIDZvckQMlYAyQgMQFKJjFgdk8ClIw1QAISE6BkEgNm9yRAyVgDJCAxAUomMWB2TwKUjDVAAhIToGQSA2b3JEDJWAMkIDEBSiYxYHZPAkbJKisrSYIESEAiAlzJJALLbkmgjQAlYy2QgMQEKJnEgNk9CVAy1gAJSEyAkkkMmN2TACVjDZCAxAQomcSA2T0JUDLWAAlITICSSQyY3ZMAJWMNkIDEBCiZxIDZPQlQMtYACUhMgJJJDJjdkwAlYw2QgMQEKJnEgNk9CVAy1gAJSEyAkkkMmN2TACVjDZCAxAQomcSA2T0J2CWZQVeNWnjBR+Xa7ySl7Lvfg2WHJNADAbskK0tSIwoHoUn1Nw1h0KG6FvDyUcFe7br1bUMa9bVXccvjaXi529CIjzoAgXKkBIVis6ZrqGHYdmMXRqcEIbTTL9VYUVCMdU+dQPzk1Rj0wUVsChLbavCbkDBUrLqAWTlqJJzo2l9ruzH9g6R/JStLgjoKOKhJRat29xylPZJlhbsgO6YFebH3PDwbyp1AVjhcsmPQYpbknmpGu3MmRmRG4PJniRggtB2eNg3nzq+Fum2e/Vi7XdFZkCwHiyZnw8WjBAdK6jA4MBmHTq1FgHFpMqBy50JErTyCK+6BmP1sOb4IzDeuZDmLhiIhrwE36wHPIUooYHq7zO0xWdbHEoG9cuUVTK74AMeqFBizNAen3gvBYLE/fQk2zF6AzRe+A3x/iv84uAeLRwoBlqcgKHQzvtJp0ejmDZUboF5RgOJ14ivJgOv7l2LmvxzFdTyKCUs+xP7UGfCWezExPssEbJRMXL02TpyCi7/8A5TL4+Fx5BLSTEVt+rm/kmUh3OV9PH/tUyT56nAoZjwSHvsYNenCOqvZgHH+RUisOIql3lpkRIxC6viiju2izYFaH0uUbNpfklBxdCl8m/YjyvstjPnvCrw9pg5Z4cPx9t/9EV+kBqCp5GcYO+s7bNbuQXgrM4srmRjbC19h/eU8xKquC7E/h/8MOYfza9vfZSxnRyJgRbIZZXFImedrmsnw6Vjy4jPtszKUrsLoqVtQH30INXvCOx9pbK7dvsOysJKJhZ+NmBahGMV+hMD8ogfgsLgFFCamyIlDU250q/xdzmQ2B2p9LHQ679UhPTgA17ZqkOq/D5GKnYjQn8Rio1TfCG+oAFSlabE9xDRxS5KVJ4/CbH2W8FyA6aG8hVBuCsQ1YftgXB3541gE7kEyaDZi4sh1qH/jc1wS6qDTvYHNtdt3XL1LZj64MDHl8Xg0CG8B0wrbz5KZjdVZMlEcNb58R5Ssi5gQBRyGkjUNaA3LomTdYi1cBu9VfigV9uVP9Z0Xn5QLAZu3i1pjneyf8zsMS0nHc2fPo9Mm5v5LthtRt00rhWbDOPhXppjEKk7Ek/PuYG/VdoS4GpC/2BfxXqYzWat1UL9yB/uq0tC6XvSSElEYy2N1laJDsm/wmynjkL/sMk4uFk5U2nQED8vBgm8LEN+6JIkr2e6o28Lvzd5VJ1+DKuFH+OMlITYh9sJlflgwoHUbLJfCYRx9J2CjZHX7IjF83Qh8KuzInkgPxrD98427mPYz+f2XLBHn/AaiWd+IhrvTsb08F7HGaOpQuDIYL2XUQKkcBE/XWtxdYHYmQxnWjw3CphollIq+XIOKklkey7pkwhVGZTrCQ/4N55rd0NTogcjMM8iM7LjCqNv3Kp5dfAqPKIWbj7BtuLFLvH7RIj/xRczbrYWbohE/GPUmjha0Xej0Pbd8UiYErEg2KV2HIUpFe5Bh225gV0QhlvnNQUOGVtjtiC/eMmGj9AK+Wn9ZuIFurZv7L5npTBal00GhsvDNS6+DTqGCtW/Q+k7tLH3baBOwY+tndawectp5nC4PCt/sdE1CjF2/lVn77zKpHYbhfAR6P5NJOueu5ytJB2PnJPBACFiQTI/aq7fg8bQXpP+Difs51gPhy0FJAHb9xQf5kQAJ9E6AkvXOiE+QgF0EKJld+NiYBHonQMl6Z8QnSMAuApTMLnxsTAK9E6BkvTPiEyRgFwFKZhc+NiaB3glQst4Z8QkSsIsAJbMLHxuTQO8EKFnvjPgECdhFgJLZhY+NSaB3ApSsd0Z8ggTsIkDJ7MLHxiTQOwFK1jsjPkECdhGgZHbhY2MS6J0AJeudEZ8gAbsIGCWrrKy0qxM2JgESsE6AKxmrgwQkJkDJJAbM7kmAkrEGSEBiApRMYsDsngQoGWuABCQmQMkkBszuSYCSsQZIQGIClExiwOyeBCgZa4AEJCZAySQGzO5JgJKxBkhAYgKUTGLA7J4EKBlrgAQkJkDJJAbM7kmAkrEGSEBiApRMYsDsngQoGWuABCQmQMkkBszuSYCSsQZIQGICdklm0FWjFl7wUblKHCa7JwHHJWCXZGVJakThIDSp/iYCBh2qawEvHxXuh3Y5r3pia2glChMed9wMMHIbCJQjJSgUmzVdm4Rh241dGJ0ShNBOv1RjRUEx1j11AvGTV2PQBxexKUhsq8FvQsJQseoCZuWokXCia3+t7cbYEFoPj/avZGVJUEcBBzWpaNWuf6K00ou4kta7+sDLXdJh2LkcCWSFwyU7Bi15se3RdXvpm8Wt3TkTIzIjcPmzRAwQ2g5Pm4Zz59dC3faMhLVrQbIcLJqcDRePEhwoqcPgwGQcOrUWAcalyYDKnQsRtfIIrrgHYvaz5fgiMN+4kuUsGoqEvAbcrAc8hyihgOntMrfHBPU0FoQ+g3BxRgQK3nwbp2t9kXS6Eu9MBsrN3lhh225gl9kghsqdWBj1C3xyHXh0whJ8uD8VM7xNQWjzkzD/9R34/Psm+EX+Hicz5sP3fiy5cixSR4/JRsnE1WvjxCm4+Ms/QLk8Hh5HLiHNVNSmn/srWRbCXd7H89c+RZKvDodixiPhsY9Rky6ss5oNGOdfhMSKo1jqrUVGxCikji/q2C7aHGgPYwnzzgp3QXxNMg6fXIsXPQzQKVQwP/6Jv8+OaUHHy+wkXlMl4IfHv8TWQAWup/09nju7Etp9kXDVpiN4xFHEXhRiF+aVFT4GW0PO4+zqpxy93B7O+K1INqMsDinzfE1Mhk/HkhefaedjKF2F0VO3oD76EGr2hHc+0thcu33HbmElEws/GzEteTAuxEJgftEDcFjcAgoTU+TEoSk3ulX+LmcymwPtYaxWyTpL1Hli3STrOr7ZGfFWejB+lDECv39jqqmTM1vwz9+u6bTd6Ds2PvnACdyDZNBsxMSR61D/xue4lBYgI8nMC1eYmPJ4PBqEt4Bphe1nybpI0n2lslEys8fLk0ch4JOZ2LJ4bMd/7fKme+CFwwD6TsDm7aIW6cHDsH/O7zAsJV3Y4ZzH2vYD2QPZLu5G1O2TWCxsWTUbxsG/MsUkVnEinpx3B3urtiPE1YD8xb6I9zKdyVqtg/qVO9hXlYaAPuESVzIrY93LSmbIRbT3e3j+8mdIFM5hhsKVmLx9Cor+EAOlMXY9dl3ZiRniRYn2DE7XTcRPRvJQ1qdUye0hGyWrE44Mw9eNwKfCjuwJYVczbP98XBMuQVqP6w/iTJaIc34D0axvRMPd6dhenotYYzR1KFwZjJcyaqBUDoKnay3uLjA7k6EM68cGYVONEkpFX65BRcmsjWU6k1naLrZdfDTqtGh084bKDWi7ANHmvoapr+XilpsCjT+YhHcK85BoFMmA0o2hiHi3As3C75oG/BgrDuTjrUBeTcrNnz7FY0WySek6DFEq2rsw1kVEIZb5zUFDhhZ7wsVaKEOS+gV8tf6ycJ5v1czmo06fojQ+1OOZLEqng0Jl4ZuXXtftEsJ8SH2ndpa+bbQJ2HEmszpW3+di9qRwSaJrgkplSSA9asVvebz3vyeybGQ7gd4vPmzv04YWXS4+bGjJR0nAUQhYkEx401+9BY+nvSD9Rup+juUoKWGczkbArr/4cDYYnA8JSEGAkklBlX2SgBkBSsZyIAGJCVAyiQGzexKgZKwBEpCYACWTGDC7JwFKxhogAYkJUDKJAbN7EqBkrAESkJgAJZMYMLsnAUrGGiABiQlQMokBs3sSoGSsARKQmAAlkxgwuycBSsYaIAGJCVAyiQGzexL4f3lLe8/GO/VwAAAAAElFTkSuQmCC;" parent="lG4Si6NppUaspvrfnCq9-15" vertex="1">
          <mxGeometry y="20" width="217" height="243" as="geometry" />
        </mxCell>
        <mxCell id="lG4Si6NppUaspvrfnCq9-2" value="&lt;font face=&quot;Courier New&quot;&gt;demo_product&lt;/font&gt;" style="swimlane;whiteSpace=wrap;html=1;" parent="lG4Si6NppUaspvrfnCq9-15" vertex="1">
          <mxGeometry width="210" height="250" as="geometry" />
        </mxCell>
      </root>
    </mxGraphModel>
  </diagram>
</mxfile>
